<svg width="31" height="31" viewBox="0 0 31 31" fill="none" xmlns="http://www.w3.org/2000/svg">
<path d="M1 7.33333V4.16667C1 3.32681 1.33363 2.52136 1.9275 1.9275C2.52136 1.33363 3.32681 1 4.16667 1H7.33333M23.1666 1H26.3333C27.1732 1 27.9786 1.33363 28.5725 1.9275C29.1663 2.52136 29.5 3.32681 29.5 4.16667V7.33333M29.5 23.1667V26.3333C29.5 27.1732 29.1663 27.9786 28.5725 28.5725C27.9786 29.1664 27.1732 29.5 26.3333 29.5H23.1666M7.33333 29.5H4.16667C3.32681 29.5 2.52136 29.1664 1.9275 28.5725C1.33363 27.9786 1 27.1732 1 26.3333V23.1667M7.5973 10.8493L15.2501 15.2475M15.2501 15.2475L22.9029 10.8493M15.2501 15.2475L15.25 24.0438M23.1667 11.729C23.1664 11.4205 23.0849 11.1175 22.9306 10.8504C22.7762 10.5833 22.5542 10.3615 22.2871 10.2072L16.1297 6.68869C15.8622 6.53428 15.5588 6.45299 15.25 6.45299C14.9412 6.45299 14.6378 6.53428 14.3704 6.68869L8.21299 10.2072C7.94582 10.3615 7.7239 10.5833 7.56951 10.8504C7.41512 11.1175 7.33368 11.4205 7.33336 11.729V18.766C7.33368 19.0745 7.41512 19.3775 7.56951 19.6446C7.7239 19.9117 7.94582 20.1335 8.21299 20.2878L14.3704 23.8063C14.6378 23.9607 14.9412 24.042 15.25 24.042C15.5588 24.042 15.8622 23.9607 16.1297 23.8063L22.2871 20.2878C22.5542 20.1335 22.7762 19.9117 22.9306 19.6446C23.0849 19.3775 23.1664 19.0745 23.1667 18.766V11.729Z" stroke="white" stroke-width="2" stroke-linecap="round" stroke-linejoin="round"/>
</svg>
