<svg width="31" height="31" viewBox="0 0 31 31" fill="none" xmlns="http://www.w3.org/2000/svg">
<path d="M1 7.33333V4.16667C1 3.32681 1.33363 2.52136 1.9275 1.9275C2.52136 1.33363 3.32681 1 4.16667 1H7.33333M23.1666 1H26.3333C27.1732 1 27.9786 1.33363 28.5725 1.9275C29.1663 2.52136 29.5 3.32681 29.5 4.16667V7.33333M29.5 23.1667V26.3333C29.5 27.1732 29.1663 27.9786 28.5725 28.5725C27.9786 29.1664 27.1732 29.5 26.3333 29.5H23.1666M7.33333 29.5H4.16667C3.32681 29.5 2.52136 29.1664 1.9275 28.5725C1.33363 27.9786 1 27.1732 1 26.3333V23.1667" stroke="white" stroke-width="2" stroke-linecap="round" stroke-linejoin="round"/>
<rect x="7" y="7" width="6" height="6" rx="1" stroke="white" stroke-width="2"/>
<rect x="7" y="18" width="6" height="6" rx="1" stroke="white" stroke-width="2"/>
<rect x="18" y="7" width="6" height="6" rx="1" stroke="white" stroke-width="2"/>
<path d="M17 18C17 17.4477 17.4477 17 18 17H18.6667C19.219 17 19.6667 17.4477 19.6667 18V18.6667C19.6667 19.219 19.219 19.6667 18.6667 19.6667H18C17.4477 19.6667 17 19.219 17 18.6667V18Z" fill="white"/>
<path d="M19.6667 20.6665C19.6667 20.1142 20.1144 19.6665 20.6667 19.6665H21.3333C21.8856 19.6665 22.3333 20.1142 22.3333 20.6665V21.3332C22.3333 21.8855 21.8856 22.3332 21.3333 22.3332H20.6667C20.1144 22.3332 19.6667 21.8855 19.6667 21.3332V20.6665Z" fill="white"/>
<path d="M22.3333 23.3335C22.3333 22.7812 22.781 22.3335 23.3333 22.3335H24C24.5523 22.3335 25 22.7812 25 23.3335V24.0002C25 24.5524 24.5523 25.0002 24 25.0002H23.3333C22.781 25.0002 22.3333 24.5524 22.3333 24.0002V23.3335Z" fill="white"/>
<path d="M22.3333 18C22.3333 17.4477 22.781 17 23.3333 17H24C24.5523 17 25 17.4477 25 18V18.6667C25 19.219 24.5523 19.6667 24 19.6667H23.3333C22.781 19.6667 22.3333 19.219 22.3333 18.6667V18Z" fill="white"/>
<path d="M17 23.3335C17 22.7812 17.4477 22.3335 18 22.3335H18.6667C19.219 22.3335 19.6667 22.7812 19.6667 23.3335V24.0002C19.6667 24.5524 19.219 25.0002 18.6667 25.0002H18C17.4477 25.0002 17 24.5524 17 24.0002V23.3335Z" fill="white"/>
</svg>
